{"title":"Star Wars Rebels S02E20 Twilight of the Apprentice Part 2 1080P","uid":14116275,"size":916056984,"categoryP":"video","categoryS":"hd___tv_shows","magnet":"?xt=urn:btih:f8c1fa514f4869d914433372d52fcc34529a5562&amp;dn=Star+Wars+Rebels+S02E20+Twilight+of+the+Apprentice+Part+2+1080P+&amp;tr=udp%3A%2F%2Ftracker.leechers-paradise.org%3A6969&amp;tr=udp%3A%2F%2Fzer0day.ch%3A1337&amp;tr=udp%3A%2F%2Fopen.demonii.com%3A1337&amp;tr=udp%3A%2F%2Ftracker.coppersurfer.tk%3A6969&amp;tr=udp%3A%2F%2Fexodus.desync.com%3A6969","seeders":27,"leechers":5,"uploader":"jmanwf","files":2,"time":1459421390,"description":"Description\r\nAfter gaining information about the Sith, Kanan, Ezra and Ahsoka battle the Inquisitors with the help of a new ally, but are overmatched when Vader arrives.\r\n\r\n\r\n\r\nVideo\r\nID : 2\r\nFormat : AVC\r\nFormat/Info : Advanced Video Codec\r\nFormat profile :   \r\nFormat settings, CABAC : Yes\r\nFormat settings, ReFrames : 4 frames\r\nCodec ID : avc1\r\nCodec ID/Info : Advanced Video Coding\r\nDuration : 22mn 7s\r\nBit rate : 5 007 Kbps\r\nWidth : 1 920 pixels\r\nHeight : 1 080 pixels\r\nDisplay aspect ratio : 16:9\r\nFrame rate mode : Constant\r\nFrame rate : 23.976 (24000/1001) fps\r\nColor space : YUV\r\nChroma subsampling : 4:2:0\r\nBit depth : 8 bits\r\nScan type : Progressive\r\nBits/(Pixel*Frame) : 0.101\r\nStream size : 792 MiB (91%)\r\nLanguage : English\r\nEncoded date : UTC 2016-03-31 08:17:42\r\nTagged date : UTC 2016-03-31 08:20:09\r\nColor range : Limited\r\nColor primaries : BT.709\r\nTransfer characteristics : BT.709\r\nMatrix coefficients : BT.709\r\n\r\nAudio #1\r\nID : 1\r\nFormat : AAC\r\nFormat/Info : Advanced Audio Codec\r\nFormat profile : LC\r\nCodec ID : 40\r\nDuration : 22mn 7s\r\nBit rate mode : Variable\r\nBit rate : 127 Kbps\r\nMaximum bit rate : 199 Kbps\r\nChannel(s) : 2 channels\r\nChannel positions : Front: L R\r\nSampling rate : 48.0 KHz\r\nFrame rate : 46.875 fps (1024 spf)\r\nCompression mode : Lossy\r\nStream size : 20.1 MiB (2%)\r\nLanguage : English\r\nDefault : Yes\r\nAlternate group : 1\r\nEncoded date : UTC 2016-03-31 08:17:42\r\nTagged date : UTC 2016-03-31 08:20:09\r\n\r\nAudio #2\r\nID : 3\r\nFormat : AC-3\r\nFormat/Info : Audio Coding 3\r\nMode extension : CM (complete main)\r\nFormat settings, Endianness : Big\r\nCodec ID : ac-3\r\nDuration : 22mn 7s\r\nBit rate mode : Constant\r\nBit rate : 384 Kbps\r\nChannel(s) : 6 channels\r\nChannel positions : Front: L C R, Side: L R, LFE\r\nSampling rate : 48.0 KHz\r\nFrame rate : 31.250 fps (1536 spf)\r\nBit depth : 16 bits\r\nCompression mode : Lossy\r\nStream size : 60.8 MiB (7%)\r\nLanguage : English\r\nDefault : No\r\nAlternate group : 1\r\nEncoded date : UTC 2016-03-31 08:17:42\r\nTagged date : UTC 2016-03-31 08:20:09\r\n\r\nText\r\nID : 4-CC1\r\nFormat : EIA-608\r\nMuxing mode : Final Cut\r\nCodec ID : c608\r\nDuration : 20mn 5s\r\nBit rate mode : Constant\r\nStream size : 0.00 Byte (0%)\r\nLanguage : English\r\nForced : No\r\nEncoded date : UTC 2016-03-31 08:17:42\r\nTagged date : UTC 2016-03-31 08:17:45","torrent":{"xt":"urn:btih:f8c1fa514f4869d914433372d52fcc34529a5562","amp;dn":"Star+Wars+Rebels+S02E20+Twilight+of+the+Apprentice+Part+2+1080P+","amp;tr":["udp%3A%2F%2Ftracker.leechers-paradise.org%3A6969","udp%3A%2F%2Fzer0day.ch%3A1337","udp%3A%2F%2Fopen.demonii.com%3A1337","udp%3A%2F%2Ftracker.coppersurfer.tk%3A6969","udp%3A%2F%2Fexodus.desync.com%3A6969"],"infoHash":"f8c1fa514f4869d914433372d52fcc34529a5562","infoHashBuffer":{"type":"Buffer","data":[248,193,250,81,79,72,105,217,20,67,51,114,213,47,204,52,82,154,85,98]},"announce":[],"urlList":[]}}